<svg width="398" height="398" viewBox="0 0 398 398" fill="none" xmlns="http://www.w3.org/2000/svg">
<g style="mix-blend-mode:darken">
<path fill-rule="evenodd" clip-rule="evenodd" d="M199 398C308.905 398 398 308.905 398 199C398 89.0953 308.905 0 199 0C89.0953 0 0 89.0953 0 199C0 308.905 89.0953 398 199 398ZM193.01 287.738C188.531 292.779 182.268 295.363 176.038 295.363C171.066 295.363 166.035 293.727 161.867 290.397L85.3204 229.16C75.5344 221.327 73.9554 207.053 81.7695 197.268L81.7775 197.258C89.5811 187.504 103.871 185.867 113.672 193.715L113.688 193.728C136.988 212.398 173.388 241.487 173.388 241.487L281.533 119.824C289.868 110.448 304.197 109.608 313.572 117.931C322.961 126.258 323.792 140.625 315.458 149.983L193.01 287.738Z" fill="url(#paint0_linear_389_3)"/>
</g>
<defs>
<linearGradient id="paint0_linear_389_3" x1="353.167" y1="74.9143" x2="97.4754" y2="364.448" gradientUnits="userSpaceOnUse">
<stop stop-color="#B7B7B7"/>
<stop offset="1" stop-color="#393939"/>
</linearGradient>
</defs>
</svg>
